<svg xmlns="http://www.w3.org/2000/svg" viewBox="0 0 620 520"><path d="M125 438c40-105 98-168 186-168 99 0 158 69 190 168Z" fill="#6ac7c5"/><circle cx="316" cy="178" r="108" fill="#8b542f"/><path d="M206 179C203 75 256 25 329 25c75 0 121 57 116 151-45-17-77-55-88-103-31 49-82 78-151 89Z" fill="#172552"/><circle cx="277" cy="181" r="8" fill="#172552"/><circle cx="361" cy="181" r="8" fill="#172552"/><path d="M289 225c21 18 49 18 69 0" fill="#fff" stroke="#6a351f" stroke-width="5"/><path d="M217 425c16-74 52-126 99-126 49 0 91 48 104 126Z" fill="#fff"/></svg>