<svg xmlns="http://www.w3.org/2000/svg" viewBox="0 0 800 430"><rect width="800" height="430" rx="48" fill="#fff8ec"/><g><circle cx="155" cy="155" r="72" fill="#b46f46"/><circle cx="330" cy="150" r="72" fill="#d29366"/><circle cx="505" cy="152" r="72" fill="#9a5c38"/><circle cx="676" cy="151" r="72" fill="#c47c50"/><path d="M75 405c16-111 43-174 81-174 38 0 69 60 87 174Z" fill="#ef5f91"/><path d="M250 405c15-110 43-174 80-174 39 0 68 62 87 174Z" fill="#45c6bf"/><path d="M425 405c16-111 44-174 81-174 39 0 68 61 87 174Z" fill="#8f75d2"/><path d="M596 405c16-110 43-174 81-174 39 0 68 61 87 174Z" fill="#f7c94b"/></g></svg>