<svg xmlns="http://www.w3.org/2000/svg" viewBox="0 0 700 500"><circle cx="210" cy="165" r="78" fill="#a8643f"/><circle cx="486" cy="165" r="82" fill="#9c5d38"/><circle cx="350" cy="220" r="70" fill="#b87349"/><path d="M75 470c14-135 64-222 137-222 68 0 116 82 130 222Z" fill="#45c6bf"/><path d="M355 470c15-138 63-224 136-224 71 0 118 85 135 224Z" fill="#8f75d2"/><path d="M230 470c12-110 55-176 121-176 64 0 104 67 119 176Z" fill="#f7c94b"/><path d="M220 330c92-30 175-18 251 34v118c-74-43-158-57-251-42z" fill="#fff" stroke="#11245f" stroke-width="7"/></svg>