<svg xmlns="http://www.w3.org/2000/svg" viewBox="0 0 700 620"><defs><linearGradient id="s"><stop stop-color="#ffd766"/><stop offset="1" stop-color="#f6b843"/></linearGradient><linearGradient id="b"><stop stop-color="#56d1ca"/><stop offset="1" stop-color="#189d9a"/></linearGradient></defs><path d="M190 160c-5-90 50-145 130-145 84 0 141 69 130 157-7 64-37 105-52 121H230c-20-28-36-77-40-133Z" fill="#28233c"/><circle cx="333" cy="165" r="103" fill="#b8744b"/><path d="M230 154c0-87 43-139 116-139 65 0 113 49 113 130-34-22-62-59-70-98-26 46-74 76-159 91Z" fill="#302637"/><path d="M278 160c10 8 20 8 30 0M365 160c10 8 20 8 30 0" fill="none" stroke="#3d2531" stroke-width="7" stroke-linecap="round"/><path d="M292 223c22 22 57 22 80 0" fill="#fff" stroke="#7d3d2d" stroke-width="5"/><path d="M230 302c27-27 59-40 99-40 48 0 89 15 116 47 29 34 49 112 57 202H150c8-95 28-169 80-209Z" fill="url(#s)"/><path d="M75 443c90-23 167-8 244 48v130c-73-46-151-64-244-52z" fill="#e8fffd" stroke="#fff" stroke-width="11"/><path d="M628 443c-90-23-168-8-245 48v130c74-46 152-64 245-52z" fill="url(#b)" stroke="#fff" stroke-width="11"/><path d="M383 491v130" stroke="#0f7775" stroke-width="6"/></svg>